simulation
nRows=61
nColumns=15
endheader
time  TH_x TH_y TH_z SC_y  SC_z  SC_x  AC_y  AC_z  AC_x  GH_y  GH_z  GH_yy  EL_x  PS_y
0.750063  0.000000  0.000000  0.000000  4.087785  4.484859  -20.000000  49.979244  36.240597  15.734748  44.286814  60.484672  -30.404230  18.839162  123.646012
0.750147  0.000000  0.000000  0.000000  4.087785  4.484859  -15.000000  52.124436  32.350366  11.930727  44.286814  60.484672  -30.404230  18.839162  123.646012
0.750230  0.000000  0.000000  0.000000  4.087785  4.484859  -10.000000  53.887474  28.355487  8.444728  44.286814  60.484672  -30.404230  18.839162  123.646012
0.750314  0.000000  0.000000  0.000000  4.087785  4.484859  -5.000000  55.320834  24.278451  5.214339  44.286814  60.484672  -30.404230  18.839162  123.646012
0.750398  0.000000  0.000000  0.000000  4.087785  4.484859  0.000000  56.466190  20.137430  2.186630  44.286814  60.484672  -30.404230  18.839162  123.646012
0.750482  0.000000  0.000000  0.000000  4.087785  4.484859  5.000000  57.355929  15.947394  -0.683619  44.286814  60.484672  -30.404230  18.839162  123.646012
0.750565  0.000000  0.000000  0.000000  4.087785  4.484859  10.000000  58.014558  11.720939  -3.435714  44.286814  60.484672  -30.404230  18.839162  123.646012
0.750649  0.000000  0.000000  0.000000  4.087785  4.484859  15.000000  58.459777  7.468985  -6.104468  44.286814  60.484672  -30.404230  18.839162  123.646012
0.750733  0.000000  0.000000  0.000000  4.087785  4.484859  20.000000  58.703333  3.201326  -8.721629  44.286814  60.484672  -30.404230  18.839162  123.646012
0.750817  0.000000  0.000000  0.000000  4.087785  4.484859  25.000000  58.751582  -1.072941  -11.317023  44.286814  60.484672  -30.404230  18.839162  123.646012
0.750900  0.000000  0.000000  0.000000  4.087785  4.484859  30.000000  58.605760  -5.345006  -13.919689  44.286814  60.484672  -30.404230  18.839162  123.646012
0.750984  0.000000  0.000000  0.000000  4.087785  4.484859  35.000000  58.262085  -9.605945  -16.558943  44.286814  60.484672  -30.404230  18.839162  123.646012
0.751068  0.000000  0.000000  0.000000  4.087785  4.484859  40.000000  57.711572  -13.846387  -19.265389  44.286814  60.484672  -30.404230  18.839162  123.646012
0.751152  0.000000  0.000000  0.000000  4.087785  4.484859  45.000000  56.939544  -18.056020  -22.072199  44.286814  60.484672  -30.404230  18.839162  123.646012
0.751235  0.000000  0.000000  0.000000  4.087785  4.484859  50.000000  55.925016  -22.223161  -25.016243  44.286814  60.484672  -30.404230  18.839162  123.646012
0.751319  0.000000  0.000000  0.000000  -19.592553  8.196178  -20.000000  61.133408  36.029795  10.724664  40.199402  49.459792  -54.038574  13.163753  125.165521
0.751403  0.000000  0.000000  0.000000  -19.592553  8.196178  -15.000000  62.711283  31.617209  7.892507  40.199402  49.459792  -54.038574  13.163753  125.165521
0.751487  0.000000  0.000000  0.000000  -19.592553  8.196178  -10.000000  63.975200  27.147818  5.318720  40.199402  49.459792  -54.038574  13.163753  125.165521
0.751570  0.000000  0.000000  0.000000  -19.592553  8.196178  -5.000000  64.975545  22.635114  2.944174  40.199402  49.459792  -54.038574  13.163753  125.165521
0.751654  0.000000  0.000000  0.000000  -19.592553  8.196178  0.000000  65.749650  18.089685  0.721433  40.199402  49.459792  -54.038574  13.163753  125.165521
0.751738  0.000000  0.000000  0.000000  -19.592553  8.196178  5.000000  66.324831  13.520100  -1.388506  40.199402  49.459792  -54.038574  13.163753  125.165521
0.751822  0.000000  0.000000  0.000000  -19.592553  8.196178  10.000000  66.720475  8.933524  -3.418770  40.199402  49.459792  -54.038574  13.163753  125.165521
0.751906  0.000000  0.000000  0.000000  -19.592553  8.196178  15.000000  66.949406  4.336187  -5.398411  40.199402  49.459792  -54.038574  13.163753  125.165521
0.751989  0.000000  0.000000  0.000000  -19.592553  8.196178  20.000000  67.018919  -0.266244  -7.354045  40.199402  49.459792  -54.038574  13.163753  125.165521
0.752073  0.000000  0.000000  0.000000  -19.592553  8.196178  25.000000  66.931175  -4.868365  -9.311144  40.199402  49.459792  -54.038574  13.163753  125.165521
0.752157  0.000000  0.000000  0.000000  -19.592553  8.196178  30.000000  66.683423  -9.464753  -11.295249  40.199402  49.459792  -54.038574  13.163753  125.165521
0.752241  0.000000  0.000000  0.000000  -19.592553  8.196178  35.000000  66.267795  -14.049700  -13.333167  40.199402  49.459792  -54.038574  13.163753  125.165521
0.752324  0.000000  0.000000  0.000000  -19.592553  8.196178  40.000000  65.670728  -18.616886  -15.454384  40.199402  49.459792  -54.038574  13.163753  125.165521
0.752408  0.000000  0.000000  0.000000  -19.592553  8.196178  45.000000  64.872011  -23.158996  -17.692556  40.199402  49.459792  -54.038574  13.163753  125.165521
0.752492  0.000000  0.000000  0.000000  -19.592553  8.196178  50.000000  63.843299  -27.667276  -20.087529  40.199402  49.459792  -54.038574  13.163753  125.165521
0.752576  0.000000  0.000000  0.000000  -23.695158  13.793610  -20.000000  55.933654  36.125662  1.862092  35.423424  41.239541  -32.148576  9.970816  119.159326
0.752659  0.000000  0.000000  0.000000  -23.695158  13.793610  -15.000000  57.780966  31.937766  -1.435902  35.423424  41.239541  -32.148576  9.970816  119.159326
0.752743  0.000000  0.000000  0.000000  -23.695158  13.793610  -10.000000  59.277207  27.672139  -4.443546  35.423424  41.239541  -32.148576  9.970816  119.159326
0.752827  0.000000  0.000000  0.000000  -23.695158  13.793610  -5.000000  60.475394  23.346488  -7.223330  35.423424  41.239541  -32.148576  9.970816  119.159326
0.752911  0.000000  0.000000  0.000000  -23.695158  13.793610  0.000000  61.415916  18.974895  -9.826486  35.423424  41.239541  -32.148576  9.970816  119.159326
0.752994  0.000000  0.000000  0.000000  -23.695158  13.793610  5.000000  62.129092  14.568799  -12.295826  35.423424  41.239541  -32.148576  9.970816  119.159326
0.753078  0.000000  0.000000  0.000000  -23.695158  13.793610  10.000000  62.637051  10.137824  -14.667974  35.423424  41.239541  -32.148576  9.970816  119.159326
0.753162  0.000000  0.000000  0.000000  -23.695158  13.793610  15.000000  62.954995  5.690290  -16.975173  35.423424  41.239541  -32.148576  9.970816  119.159326
0.753246  0.000000  0.000000  0.000000  -23.695158  13.793610  20.000000  63.092297  1.233736  -19.246861  35.423424  41.239541  -32.148576  9.970816  119.159326
0.753329  0.000000  0.000000  0.000000  -23.695158  13.793610  25.000000  63.052924  -3.224749  -21.510936  35.423424  41.239541  -32.148576  9.970816  119.159326
0.753413  0.000000  0.000000  0.000000  -23.695158  13.793610  30.000000  62.835743  -7.678166  -23.794977  35.423424  41.239541  -32.148576  9.970816  119.159326
0.753497  0.000000  0.000000  0.000000  -23.695158  13.793610  35.000000  62.434428  -12.119274  -26.127408  35.423424  41.239541  -32.148576  9.970816  119.159326
0.753581  0.000000  0.000000  0.000000  -23.695158  13.793610  40.000000  61.837099  -16.540239  -28.538753  35.423424  41.239541  -32.148576  9.970816  119.159326
0.753664  0.000000  0.000000  0.000000  -23.695158  13.793610  45.000000  61.025551  -20.932204  -31.063014  35.423424  41.239541  -32.148576  9.970816  119.159326
0.753748  0.000000  0.000000  0.000000  -23.695158  13.793610  50.000000  59.974251  -25.284831  -33.739321  35.423424  41.239541  -32.148576  9.970816  119.159326
0.753832  0.000000  0.000000  0.000000  -3.999642  10.149742  -20.000000  55.211907  21.444884  3.264342  30.950877  58.355430  -22.525033  21.752442  116.470643
0.753916  0.000000  0.000000  0.000000  -3.999642  10.149742  -15.000000  56.203436  17.313021  0.278690  30.950877  58.355430  -22.525033  21.752442  116.470643
0.753999  0.000000  0.000000  0.000000  -3.999642  10.149742  -10.000000  56.953497  13.138923  -2.574858  30.950877  58.355430  -22.525033  21.752442  116.470643
0.754083  0.000000  0.000000  0.000000  -3.999642  10.149742  -5.000000  57.481864  8.934424  -5.332499  30.950877  58.355430  -22.525033  21.752442  116.470643
0.754167  0.000000  0.000000  0.000000  -3.999642  10.149742  0.000000  57.802222  4.710039  -8.027018  30.950877  58.355430  -22.525033  21.752442  116.470643
0.754251  0.000000  0.000000  0.000000  -3.999642  10.149742  5.000000  57.922739  0.475406  -10.688906  30.950877  58.355430  -22.525033  21.752442  116.470643
0.754335  0.000000  0.000000  0.000000  -3.999642  10.149742  10.000000  57.846474  -3.760247  -13.347523  30.950877  58.355430  -22.525033  21.752442  116.470643
0.754418  0.000000  0.000000  0.000000  -3.999642  10.149742  15.000000  57.571496  -7.987745  -16.032121  30.950877  58.355430  -22.525033  21.752442  116.470643
0.754502  0.000000  0.000000  0.000000  -3.999642  10.149742  20.000000  57.090794  -12.197591  -18.772838  30.950877  58.355430  -22.525033  21.752442  116.470643
0.754586  0.000000  0.000000  0.000000  -3.999642  10.149742  25.000000  56.391977  -16.379484  -21.601859  30.950877  58.355430  -22.525033  21.752442  116.470643
0.754670  0.000000  0.000000  0.000000  -3.999642  10.149742  30.000000  55.456695  -20.521937  -24.554497  30.950877  58.355430  -22.525033  21.752442  116.470643
0.754753  0.000000  0.000000  0.000000  -3.999642  10.149742  35.000000  54.259882  -24.611678  -27.670523  30.950877  58.355430  -22.525033  21.752442  116.470643
0.754837  0.000000  0.000000  0.000000  -3.999642  10.149742  40.000000  52.768622  -28.632944  -30.995641  30.950877  58.355430  -22.525033  21.752442  116.470643
0.754921  0.000000  0.000000  0.000000  -3.999642  10.149742  45.000000  50.940994  -32.566635  -34.583011  30.950877  58.355430  -22.525033  21.752442  116.470643
0.755005  0.000000  0.000000  0.000000  -3.999642  10.149742  50.000000  48.724736  -36.389189  -38.494829  30.950877  58.355430  -22.525033  21.752442  116.470643
0.755088  0.000000  0.000000  0.000000  -10.413597  12.701685  -20.000000  65.942614  46.140347  10.726545  62.712838  37.399961  -57.092933  21.110035  123.956416
